# xmcd
#
# Track frame offsets: 
#        300
#        21868
#        46182
#        69858
#        90798
#        108579
#        131064
#        155554
#        189909
#        205675
#        225978
#
# Disc length: 3176 seconds
#
# Revision: 0
# Processed by: cddbd v1.5.2PL0 Copyright (c) Steve Scherf et al.
# Submitted via: ExactAudioCopy v1.0b1
#
DISCID=7f0c640b
DTITLE=Dani Wilde - Shine
DYEAR=2010
DGENRE=General Blues
TTITLE0=Shine
TTITLE1=Some Kinda Crazy
TTITLE2=Miss You
TTITLE3=How Do You Do It
TTITLE4=Red Blooded Woman
TTITLE5=Don`t Give Up On Me
TTITLE6=I Don`t Even Care
TTITLE7=Abandoned Child
TTITLE8=Born To Love Him
TTITLE9=Where Blue Begins
TTITLE10=Big Brown Eyes
EXTD=
EXTT0=
EXTT1=
EXTT2=
EXTT3=
EXTT4=
EXTT5=
EXTT6=
EXTT7=
EXTT8=
EXTT9=
EXTT10=
PLAYORDER=
